<?xml version="1.0" encoding="utf-8"?>
<!-- Generator: Adobe Illustrator 17.0.0, SVG Export Plug-In . SVG Version: 6.00 Build 0)  -->
<!DOCTYPE svg PUBLIC "-//W3C//DTD SVG 1.1//EN" "http://www.w3.org/Graphics/SVG/1.1/DTD/svg11.dtd">
<svg version="1.1" id="Layer_1" xmlns="http://www.w3.org/2000/svg" xmlns:xlink="http://www.w3.org/1999/xlink" x="0px" y="0px"
	 width="1024px" height="1024px" viewBox="0 0 1024 1024" enable-background="new 0 0 1024 1024" xml:space="preserve">
<rect x="203.429" y="203.429" fill="#98252B" width="617.143" height="617.143"/>
<rect x="227" y="234.714" fill="#FFFFFF" width="570" height="132.857"/>
<g>
	<rect x="343.429" y="407.929" fill="#FFFFFF" width="105.714" height="105.714"/>
	<rect x="459.143" y="407.929" fill="#FFFFFF" width="105.714" height="105.714"/>
	<rect x="227" y="407.929" fill="#FFFFFF" width="105.714" height="105.714"/>
	<rect x="691.286" y="407.929" fill="#FFFFFF" width="105.714" height="105.714"/>
	<rect x="574.857" y="407.929" fill="#FFFFFF" width="105.714" height="105.714"/>
</g>
<g>
	<rect x="343.429" y="536.786" fill="#FFFFFF" width="105.714" height="105.714"/>
	<rect x="459.143" y="536.786" fill="#FFFFFF" width="105.714" height="105.714"/>
	<rect x="227" y="536.786" fill="#FFFFFF" width="105.714" height="105.714"/>
	<rect x="691.286" y="536.786" fill="#FFFFFF" width="105.714" height="105.714"/>
	<rect x="574.857" y="536.786" fill="#FFFFFF" width="105.714" height="105.714"/>
</g>
<g>
	<rect x="343.429" y="666.5" fill="#FFFFFF" width="105.714" height="105.714"/>
	<rect x="459.143" y="666.5" fill="#FFFFFF" width="105.714" height="105.714"/>
	<rect x="227" y="666.5" fill="#FFFFFF" width="105.714" height="105.714"/>
	<rect x="691.286" y="666.5" fill="#FFFFFF" width="105.714" height="105.714"/>
	<rect x="574.857" y="666.5" fill="#FFFFFF" width="105.714" height="105.714"/>
</g>
</svg>
