<?xml version="1.0" encoding="utf-8"?>
<!-- Generator: Adobe Illustrator 17.0.0, SVG Export Plug-In . SVG Version: 6.00 Build 0)  -->
<!DOCTYPE svg PUBLIC "-//W3C//DTD SVG 1.1//EN" "http://www.w3.org/Graphics/SVG/1.1/DTD/svg11.dtd">
<svg version="1.1" id="Layer_1" xmlns="http://www.w3.org/2000/svg" xmlns:xlink="http://www.w3.org/1999/xlink" x="0px" y="0px"
	 width="1024px" height="1024px" viewBox="0 0 1024 1024" enable-background="new 0 0 1024 1024" xml:space="preserve">
<g>
	<rect fill="#98252B" width="1024" height="1024"/>
	<rect x="39.111" y="51.911" fill="#FFFFFF" width="945.778" height="220.444"/>
	<g>
		<rect x="232.296" y="339.319" fill="#FFFFFF" width="175.407" height="175.407"/>
		<rect x="424.296" y="339.319" fill="#FFFFFF" width="175.407" height="175.407"/>
		<rect x="39.111" y="339.319" fill="#FFFFFF" width="175.407" height="175.407"/>
		<rect x="809.481" y="339.319" fill="#FFFFFF" width="175.407" height="175.407"/>
		<rect x="616.296" y="339.319" fill="#FFFFFF" width="175.407" height="175.407"/>
	</g>
	<g>
		<rect x="232.296" y="553.126" fill="#FFFFFF" width="175.407" height="175.407"/>
		<rect x="424.296" y="553.126" fill="#FFFFFF" width="175.407" height="175.407"/>
		<rect x="39.111" y="553.126" fill="#FFFFFF" width="175.407" height="175.407"/>
		<rect x="809.481" y="553.126" fill="#FFFFFF" width="175.407" height="175.407"/>
		<rect x="616.296" y="553.126" fill="#FFFFFF" width="175.407" height="175.407"/>
	</g>
	<g>
		<rect x="232.296" y="768.356" fill="#FFFFFF" width="175.407" height="175.407"/>
		<rect x="424.296" y="768.356" fill="#FFFFFF" width="175.407" height="175.407"/>
		<rect x="39.111" y="768.356" fill="#FFFFFF" width="175.407" height="175.407"/>
		<rect x="809.481" y="768.356" fill="#FFFFFF" width="175.407" height="175.407"/>
		<rect x="616.296" y="768.356" fill="#FFFFFF" width="175.407" height="175.407"/>
	</g>
</g>
</svg>
