<?xml version="1.0" encoding="utf-8"?>
<!-- Generator: Adobe Illustrator 17.0.0, SVG Export Plug-In . SVG Version: 6.00 Build 0)  -->
<!DOCTYPE svg PUBLIC "-//W3C//DTD SVG 1.1//EN" "http://www.w3.org/Graphics/SVG/1.1/DTD/svg11.dtd">
<svg version="1.1" id="Layer_1" xmlns="http://www.w3.org/2000/svg" xmlns:xlink="http://www.w3.org/1999/xlink" x="0px" y="0px"
	 width="1024px" height="1024px" viewBox="0 0 1024 1024" enable-background="new 0 0 1024 1024" xml:space="preserve">
<circle fill="#FFFFFF" stroke="#98252B" stroke-width="40" stroke-miterlimit="10" cx="512" cy="512" r="286"/>
<circle fill="#FFFFFF" stroke="#98252B" stroke-width="20" stroke-miterlimit="10" cx="512" cy="512" r="195.5"/>
<polygon fill="#98252B" points="511.627,670.278 409.685,577.398 409.685,375.78 511.627,475.456 "/>
<polygon fill="#C32032" points="510.494,670.278 612.436,577.398 612.436,375.78 510.494,475.456 "/>
<g>
	<polygon fill="#F2CD14" points="483.129,476.127 510.494,495.09 510.494,542.285 483.164,521.56 	"/>
	<polygon fill="#F2CD14" points="431.772,470.076 484.262,499.809 484.262,477.259 431.772,440.343 	"/>
	<polygon fill="#F2CD14" points="448.763,568.08 431.772,561.54 431.772,468.943 448.763,478.568 	"/>
	<polygon fill="#F2CD14" points="510.494,622.139 431.772,577.398 431.772,561.54 510.494,591.84 	"/>
</g>
<g>
	<polygon fill="#FFFFFF" points="538.142,476.127 510.777,495.09 510.777,542.285 538.107,521.56 	"/>
	<polygon fill="#FFFFFF" points="589.499,470.076 537.009,499.809 537.009,477.259 589.499,440.343 	"/>
	<polygon fill="#FFFFFF" points="572.508,568.08 589.499,561.54 589.499,468.943 572.508,478.568 	"/>
	<polygon fill="#FFFFFF" points="510.777,622.139 589.499,577.398 589.499,561.54 510.777,591.84 	"/>
</g>
<polygon fill="#FFFFFF" stroke="#FFFFFF" stroke-miterlimit="10" points="717.58,656.389 635.084,598.245 635.084,428.608 
	717.58,378.032 "/>
<path fill="#FFFFFF" d="M458.017,558.5c0.482-4.805,2.663-13.12-0.097-16.841c-3.205-4.323-7.483-5.847-12.236-6.462
	c-3.127-12.137-14.002-16.356-24.298-12.775c-3.315-4.422-7.212-6.014-12.747-6.167c-6.51-0.181-13.843,0.33-18.224,6.323
	c-0.955,1.307-0.651,2.874,0.142,3.869c-2.341,3.877-0.529,9.288,2.991,11.617c-0.295,1.556-0.3,3.174,0.096,4.754
	c0.104,0.414,0.235,0.803,0.377,1.182c-2.035,1.31-3.595,3.414-4.24,6.498c-0.489,2.338-0.196,4.409,0.587,6.238
	c-1.101,0.997-1.986,2.429-2.519,4.415c-1.672,6.242,1.993,12.131,4.349,17.493c1.572,3.577,3.082,7.76,5.749,10.298
	c-0.211,0.94-0.348,1.93-0.392,2.974c-0.288,6.913,1.819,12.558,7.884,15.202c2.751,1.199,5.408,0.31,7.926-1.354
	c1.428,6.792,7.083,10.724,13.061,10.4c1.172,3.662,3.149,7.097,6.071,8.779c0.89,0.513,1.771,0.877,2.639,1.131
	c0.382,1.255,1.463,2.258,2.968,1.829c10.248-2.922,15.684-12.99,16.912-24.026C467,591.84,458.614,589.791,458.017,582
	C467.5,577.5,463.668,565.015,458.017,558.5z"/>
</svg>
